<?xml version="1.0" encoding="iso-8859-1"?>
<!-- Generator: Adobe Illustrator 21.1.0, SVG Export Plug-In . SVG Version: 6.00 Build 0)  -->
<svg version="1.1" id="Layer_1_1_" xmlns="http://www.w3.org/2000/svg" xmlns:xlink="http://www.w3.org/1999/xlink" x="0px" y="0px"
	 viewBox="0 0 16 16" style="enable-background:new 0 0 16 16;" xml:space="preserve">
<path d="M14,0H2C0.895,0,0,0.895,0,2v10c0,1.105,0.895,2,2,2h3.916L8,16l2-2h4c1.105,0,2-0.895,2-2V2C16,0.895,15.105,0,14,0z
	 M11.431,7.439l-0.686,0.712L8,11L5.255,8.151L4.569,7.439c-0.758-0.787-0.758-2.062,0-2.849s1.987-0.787,2.745,0L8,5.302
	L8.686,4.59c0.758-0.787,1.987-0.787,2.745,0C12.19,5.377,12.19,6.652,11.431,7.439z"/>
</svg>
