<?xml version="1.0" encoding="utf-8"?>
<!-- Generator: Adobe Illustrator 16.0.0, SVG Export Plug-In . SVG Version: 6.00 Build 0)  -->
<!DOCTYPE svg PUBLIC "-//W3C//DTD SVG 1.0//EN" "http://www.w3.org/TR/2001/REC-SVG-20010904/DTD/svg10.dtd">
<svg version="1.0" id="Layer_1" xmlns="http://www.w3.org/2000/svg" xmlns:xlink="http://www.w3.org/1999/xlink" x="0px" y="0px"
	 width="100px" height="100px" viewBox="0 0 100 100" enable-background="new 0 0 100 100" xml:space="preserve">
<path d="M70,30.335V16.667C70,12.982,67.019,10,63.337,10H23.333c-3.682,0-6.666,2.982-6.666,6.667V90l26.666-13.334L70,90V62.998
	c7.607-1.547,13.333-8.268,13.333-16.332C83.333,38.603,77.607,31.881,70,30.335z M63.333,79.213l-20-10l-20,10V16.667h40.004
	v13.669C55.729,31.878,50,38.6,50,46.667c0,8.064,5.726,14.785,13.333,16.332V79.213z M65.488,54.033l-8.838-8.841l3.535-3.535
	l5.303,5.303l7.659-7.659l3.535,3.535L65.488,54.033z"/>
</svg>
