<?xml version="1.0" standalone="no"?>
<!DOCTYPE svg PUBLIC "-//W3C//DTD SVG 20010904//EN"
 "http://www.w3.org/TR/2001/REC-SVG-20010904/DTD/svg10.dtd">
<svg version="1.0" xmlns="http://www.w3.org/2000/svg"
 width="300.000000pt" height="53.000000pt" viewBox="0 0 300.000000 53.000000"
 preserveAspectRatio="xMidYMid meet">
<metadata>
Created by potrace 1.10, written by Peter Selinger 2001-2011
</metadata>
<g transform="translate(0.000000,53.000000) scale(0.100000,-0.100000)"
fill="#000000" stroke="none">
<path d="M506 523 c-4 -4 -107 -11 -229 -14 l-222 -5 233 0 232 1 0 -237 c0
-186 -3 -236 -12 -233 -10 4 -13 59 -13 228 l0 222 -230 5 c-148 3 -233 1
-237 -5 -4 -5 -7 -104 -6 -220 l3 -210 2 210 c2 115 7 213 11 217 4 4 5 -95 2
-220 -3 -146 -1 -230 5 -235 6 -4 112 -6 238 -5 193 3 227 1 227 -11 0 -11 3
-12 11 -4 8 8 12 87 12 251 0 220 -7 285 -27 265z m-26 -258 l0 -215 -217 -2
-218 -2 225 -6 225 -6 -224 1 -223 0 2 145 c1 80 3 156 5 170 1 14 3 49 4 78
l1 52 210 0 210 0 0 -215z"/>
<path d="M236 388 c-28 -68 -91 -195 -118 -242 -23 -38 -26 -51 -16 -57 7 -5
18 -9 23 -9 6 0 4 4 -3 9 -11 7 3 43 63 166 77 158 78 158 92 131 8 -15 17
-26 20 -23 6 7 -27 57 -38 57 -5 0 -15 -15 -23 -32z"/>
<path d="M240 306 c-24 -57 -20 -81 13 -72 12 3 30 6 40 6 9 0 17 4 17 9 0 5
-16 5 -37 0 -21 -4 -39 -6 -42 -4 -2 3 4 23 14 45 l18 40 15 -30 c8 -17 17
-29 19 -26 2 2 -4 21 -15 43 l-20 38 -22 -49z"/>
<path d="M300 344 c0 -3 27 -59 61 -125 34 -66 59 -122 56 -125 -2 -3 -16 -2
-30 1 -19 5 -28 17 -37 51 -15 52 -32 64 -93 64 -46 0 -84 -26 -74 -52 4 -9 6
-7 6 4 2 32 60 47 118 32 16 -4 24 -19 33 -55 7 -27 17 -49 23 -49 7 0 21 -3
32 -5 11 -3 26 -1 33 4 11 7 9 16 -10 47 -14 22 -44 78 -67 127 -38 78 -51 99
-51 81z"/>
<path d="M170 116 c0 -8 -8 -17 -17 -19 -14 -4 -12 -5 5 -6 16 -1 22 5 22 19
0 11 -2 20 -5 20 -3 0 -5 -6 -5 -14z"/>
<path d="M627 523 c-4 -3 -6 -119 -5 -257 l2 -251 6 255 c3 140 7 248 8 239 1
-9 9 -20 18 -23 9 -3 112 -6 230 -6 l214 0 0 -215 0 -215 -220 -3 -220 -3 222
1 223 0 0 220 0 220 -225 5 -225 6 231 2 c204 2 233 4 245 19 12 15 12 16 -1
7 -8 -5 -120 -11 -248 -14 -182 -4 -232 -2 -232 8 0 13 -13 16 -23 5z"/>
<path d="M1234 517 c-2 -7 -3 -62 -1 -123 l3 -109 2 118 c1 76 6 116 12 112 6
-3 10 -1 10 4 0 15 -20 14 -26 -2z"/>
<path d="M1740 520 c0 -6 4 -8 10 -5 6 3 11 -38 13 -107 l3 -113 -1 114 c0 82
-4 116 -12 119 -7 2 -13 -1 -13 -8z"/>
<path d="M1857 523 c-10 -10 -7 -485 3 -508 7 -17 9 -17 9 -2 1 9 2 18 4 19 1
1 108 4 237 8 l235 6 -222 2 -223 2 0 215 0 215 216 0 c129 0 223 4 235 10 19
10 19 5 21 -232 l3 -243 3 225 c1 124 0 241 -4 260 -6 35 -6 35 -21 13 -15
-23 -18 -23 -240 -23 l-224 0 3 -224 c3 -207 2 -225 -14 -230 -17 -4 -18 12
-18 240 0 134 4 244 8 244 4 0 13 -5 18 -10 7 -7 90 -9 230 -7 l219 2 -222 3
c-135 1 -224 6 -228 12 -7 12 -19 13 -28 3z"/>
<path d="M2474 508 c-12 -38 -8 -473 4 -494 10 -16 11 -16 12 -3 0 9 7 20 16
23 9 3 112 6 229 6 118 0 216 4 219 8 3 5 6 109 7 233 l1 224 -228 5 c-126 3
-234 8 -241 13 -7 4 -14 -1 -19 -15z m264 -10 l227 -2 -230 -6 -230 -5 0 -222
c0 -169 -3 -224 -12 -228 -10 -3 -13 48 -13 236 0 216 2 241 16 235 9 -3 118
-7 242 -8z m212 -233 l0 -215 -215 0 -215 0 0 215 0 215 215 0 215 0 0 -215z"/>
<path d="M2637 423 c-4 -3 -7 -11 -7 -17 0 -6 5 -5 12 2 7 7 19 12 28 12 15 0
17 -18 16 -155 -1 -140 -3 -155 -18 -155 -16 0 -18 15 -21 143 l-3 142 -2
-150 -2 -151 28 2 27 1 3 90 c2 84 4 91 24 97 39 10 48 -10 48 -100 l0 -84 30
0 c26 0 30 3 29 28 -2 23 -2 24 -6 5 -3 -14 -12 -23 -24 -23 -17 0 -18 7 -16
74 2 85 -16 118 -62 114 -26 -3 -26 -3 -22 65 l3 67 -29 0 c-17 0 -33 -3 -36
-7z"/>
<path d="M2714 319 l-19 -21 31 18 c30 17 33 17 57 1 18 -12 27 -28 30 -54 l4
-38 1 42 c2 33 -3 45 -20 57 -31 22 -61 20 -84 -5z"/>
<path d="M1385 510 c-66 -5 -36 -7 114 -8 112 -1 202 0 200 2 -8 7 -227 11
-314 6z"/>
<path d="M1142 273 c-2 -217 -4 -242 -18 -236 -14 5 -14 3 -3 -15 l14 -22 8
21 c4 12 6 128 4 258 l-2 236 -3 -242z"/>
<path d="M1268 490 c9 -7 9 -443 0 -450 -3 -3 101 -5 232 -5 131 0 235 2 232
5 -4 3 -7 104 -7 225 0 121 3 222 7 225 3 3 -101 5 -232 5 -131 0 -235 -2
-232 -5z m442 -225 l0 -215 -210 0 -210 0 0 215 0 215 210 0 210 0 0 -215z"/>
<path d="M1380 411 c0 -5 5 -13 10 -16 6 -4 17 -23 25 -42 9 -20 18 -33 21
-30 4 3 -3 22 -15 42 -26 45 -26 47 1 43 18 -2 28 -16 43 -58 29 -81 35 -87
51 -59 7 13 13 31 13 39 0 8 -6 2 -13 -15 l-14 -30 -16 40 c-32 80 -40 90 -74
93 -18 2 -32 -1 -32 -7z"/>
<path d="M1536 404 c-3 -9 -6 -25 -5 -37 1 -16 3 -13 10 11 7 25 15 32 34 32
19 0 23 -4 18 -17 -4 -11 -3 -14 5 -9 7 4 12 14 12 22 0 20 -66 19 -74 -2z"/>
<path d="M1570 346 c-15 -39 -12 -46 6 -13 9 16 13 31 10 34 -3 3 -10 -6 -16
-21z"/>
<path d="M1446 290 c3 -14 10 -32 15 -40 7 -13 8 -13 8 0 0 8 -6 26 -15 40
l-15 25 7 -25z"/>
<path d="M1535 255 c-28 -73 -72 -135 -95 -135 -19 0 -18 3 10 42 16 22 30 48
29 57 0 10 -4 7 -10 -8 -5 -13 -24 -40 -41 -60 l-32 -36 30 -3 c23 -3 35 3 59
31 29 34 80 145 71 154 -2 2 -12 -17 -21 -42z"/>
<path d="M2968 249 l-3 -214 -215 -5 -215 -5 142 -8 c162 -9 277 -2 295 20 8
11 11 71 10 216 -2 111 -5 203 -7 205 -3 3 -6 -91 -7 -209z"/>
<path d="M868 429 c-16 -9 -18 -28 -18 -169 l0 -160 30 0 30 0 0 170 c0 177
-2 183 -42 159z m32 -159 c0 -153 -1 -160 -20 -160 -19 0 -20 7 -20 154 0 139
2 155 18 159 9 3 18 5 20 6 1 0 2 -71 2 -159z"/>
<path d="M2064 365 c-20 -31 -15 -39 17 -26 19 8 20 10 6 10 -33 2 -11 26 26
29 26 2 42 -3 56 -17 12 -12 21 -17 21 -12 0 18 -44 41 -77 41 -24 0 -37 -7
-49 -25z"/>
<path d="M2123 339 c27 -16 21 -45 -13 -59 -49 -20 -80 -49 -80 -75 0 -37 27
-57 74 -54 23 2 52 0 65 -5 12 -4 27 -4 32 1 4 4 4 46 -1 93 l-8 85 1 -88 c2
-84 1 -88 -18 -81 -11 3 -41 6 -66 5 -83 -3 -96 56 -20 96 67 35 72 41 59 69
-6 13 -18 24 -27 24 -14 -1 -13 -2 2 -11z"/>
<path d="M2087 242 c-10 -10 -17 -21 -17 -25 0 -10 31 -37 43 -37 7 0 4 5 -5
11 -24 14 -23 45 2 52 25 6 43 -16 35 -44 -5 -14 -4 -19 4 -15 15 9 14 49 -1
64 -17 17 -42 15 -61 -6z"/>
<path d="M1235 123 c0 -84 3 -118 13 -121 6 -2 12 1 12 8 0 6 -4 8 -10 5 -6
-3 -11 39 -13 110 l-3 115 1 -117z"/>
<path d="M1762 127 c-1 -76 -6 -116 -12 -112 -5 3 -10 1 -10 -4 0 -15 20 -14
26 2 2 7 3 62 1 123 l-3 109 -2 -118z"/>
<path d="M639 13 c-12 -15 -12 -16 1 -7 8 5 116 11 240 14 l225 6 -226 2
c-202 2 -228 0 -240 -15z"/>
<path d="M1400 21 c58 -4 150 -4 205 0 74 4 48 6 -105 6 -158 0 -181 -2 -100
-6z"/>
<path d="M2125 20 c121 -3 227 -9 235 -14 13 -9 13 -8 1 7 -12 15 -37 17 -235
15 l-221 -2 220 -6z"/>
</g>
</svg>
