<?xml version="1.0" standalone="no"?>
<!DOCTYPE svg PUBLIC "-//W3C//DTD SVG 20010904//EN"
 "http://www.w3.org/TR/2001/REC-SVG-20010904/DTD/svg10.dtd">
<svg version="1.0" xmlns="http://www.w3.org/2000/svg"
 width="593.000000pt" height="105.000000pt" viewBox="0 0 593.000000 105.000000"
 preserveAspectRatio="xMidYMid meet">
<metadata>
Created by potrace 1.16, written by Peter Selinger 2001-2019
</metadata>
<g transform="translate(0.000000,105.000000) scale(0.100000,-0.100000)"
fill="#000000" stroke="none">
<path d="M0 525 l0 -525 2965 0 2965 0 0 525 0 525 -2965 0 -2965 0 0 -525z
m960 0 l0 -435 -435 0 -435 0 0 435 0 435 435 0 435 0 0 -435z m1220 0 l0
-435 -435 0 -435 0 0 435 0 435 435 0 435 0 0 -435z m1220 0 l0 -435 -435 0
-435 0 0 435 0 435 435 0 435 0 0 -435z m1220 0 l0 -435 -435 0 -435 0 0 435
0 435 435 0 435 0 0 -435z m1220 0 l0 -435 -435 0 -435 0 0 435 0 435 435 0
435 0 0 -435z"/>
<path d="M491 788 c-103 -226 -254 -535 -276 -564 l-26 -34 73 0 74 0 12 58
c6 32 19 77 28 100 l17 42 126 0 126 0 23 -56 c12 -31 25 -76 29 -100 l6 -44
73 0 74 0 -29 45 c-16 25 -88 172 -161 328 -73 155 -134 284 -136 286 -2 2
-17 -25 -33 -61z m72 -208 c20 -49 37 -94 37 -100 0 -6 -34 -10 -86 -10 -65 0
-85 3 -81 13 43 103 81 187 86 187 3 0 23 -41 44 -90z"/>
<path d="M1745 845 c-5 -2 -21 -6 -35 -9 l-25 -5 0 -316 0 -315 57 0 57 0 -10
32 c-11 41 -12 530 0 581 8 34 7 37 -13 36 -11 0 -25 -2 -31 -4z"/>
<path d="M2764 787 c15 -19 57 -105 95 -191 l69 -158 -36 -64 c-20 -36 -55
-85 -79 -109 l-43 -45 59 0 c54 0 62 3 85 31 47 55 75 114 142 290 36 96 77
196 90 222 13 27 24 51 24 53 0 2 -25 4 -55 4 -46 0 -55 -3 -55 -17 0 -10 -20
-76 -44 -148 l-43 -130 -15 35 c-8 19 -34 86 -59 147 l-44 113 -58 0 -58 0 25
-33z"/>
<path d="M4155 765 c-5 -2 -22 -6 -37 -9 -18 -4 -29 -16 -37 -37 -16 -47 -15
-48 32 -31 79 28 140 -8 135 -79 -3 -40 -4 -41 -79 -72 -41 -18 -87 -40 -101
-49 -54 -36 -61 -128 -13 -166 14 -11 45 -23 71 -27 39 -6 50 -3 79 19 41 31
45 32 45 6 0 -17 7 -20 48 -20 l47 0 -2 142 c-4 201 -10 243 -39 278 -31 37
-106 59 -149 45z m93 -332 l-3 -68 -47 -3 c-73 -5 -103 38 -82 116 6 20 12 22
71 22 l64 0 -3 -67z"/>
<path d="M5259 838 l-47 -10 10 -34 c5 -20 8 -157 6 -314 l-3 -280 50 0 50 0
-3 178 -4 177 34 13 c38 13 87 16 104 4 27 -18 34 -56 34 -179 0 -70 -4 -143
-9 -161 l-10 -32 60 0 c41 0 58 3 53 11 -3 6 -9 97 -13 201 l-6 190 -33 29
c-26 24 -41 29 -81 29 -45 0 -53 -4 -91 -42 l-42 -43 4 138 c3 94 1 137 -6
136 -6 -1 -32 -6 -57 -11z"/>
</g>
</svg>
