<?xml version="1.0" standalone="no"?>
<!DOCTYPE svg PUBLIC "-//W3C//DTD SVG 20010904//EN"
 "http://www.w3.org/TR/2001/REC-SVG-20010904/DTD/svg10.dtd">
<svg version="1.0" xmlns="http://www.w3.org/2000/svg"
 width="300.000000pt" height="53.000000pt" viewBox="0 0 300.000000 53.000000"
 preserveAspectRatio="xMidYMid meet">
<metadata>
Created by potrace 1.10, written by Peter Selinger 2001-2011
</metadata>
<g transform="translate(0.000000,53.000000) scale(0.100000,-0.100000)"
fill="#000000" stroke="none">
<path d="M510 518 c0 -10 -50 -12 -226 -10 -202 3 -228 1 -245 -14 -18 -16
-19 -34 -19 -230 0 -180 2 -215 16 -228 13 -14 49 -16 233 -16 155 0 220 3
229 12 9 9 12 7 12 -10 0 -12 5 -22 10 -22 6 0 10 95 10 265 0 170 -4 265 -10
265 -5 0 -10 -6 -10 -12z m-20 -253 l0 -220 -221 2 -220 2 0 216 c0 118 1 216
1 218 0 1 99 2 220 2 l220 0 0 -220z"/>
<path d="M252 410 c-30 -74 -135 -287 -149 -302 -15 -17 -13 -18 28 -18 41 0
44 2 46 28 1 15 7 40 12 55 10 25 14 27 74 27 62 0 63 0 75 -33 7 -18 12 -43
12 -55 0 -19 5 -22 47 -22 44 0 45 1 30 18 -9 10 -50 87 -90 172 -69 142 -75
153 -85 130z m15 -168 c-21 -2 -41 -1 -43 1 -2 2 5 25 17 52 l21 47 22 -48 23
-49 -40 -3z"/>
<path d="M620 265 c0 -170 4 -265 10 -265 6 0 10 6 10 13 0 9 51 11 231 9 166
-2 235 0 245 9 11 9 14 7 14 -10 0 -11 5 -21 10 -21 6 0 10 95 10 265 0 170
-4 265 -10 265 -5 0 -10 -6 -10 -12 0 -10 -51 -12 -231 -10 -179 3 -234 0
-246 -10 -14 -11 -16 -10 -11 10 4 15 2 22 -8 22 -12 0 -14 -44 -14 -265z
m480 0 l0 -220 -220 0 -220 0 0 220 0 220 220 0 220 0 0 -220z"/>
<path d="M880 429 l-25 -9 0 -160 0 -160 25 0 25 0 0 170 c0 94 0 170 0 169 0
0 -11 -5 -25 -10z"/>
<path d="M1230 265 c0 -229 2 -265 15 -265 9 0 15 9 15 22 0 17 3 19 12 10 17
-17 439 -17 456 0 9 9 12 7 12 -10 0 -13 6 -22 15 -22 13 0 15 36 15 265 0
229 -2 265 -15 265 -9 0 -15 -9 -15 -22 0 -17 -3 -19 -12 -10 -17 17 -439 17
-456 0 -9 -9 -12 -7 -12 10 0 13 -6 22 -15 22 -13 0 -15 -36 -15 -265z m490 0
l0 -220 -220 0 -220 0 0 220 0 220 220 0 220 0 0 -220z"/>
<path d="M1393 402 c9 -9 32 -55 52 -101 39 -93 39 -97 -23 -163 l-26 -28 31
0 c42 0 73 39 108 132 23 60 54 134 73 171 2 4 -12 7 -32 7 -32 0 -36 -3 -37
-27 0 -16 -9 -50 -19 -78 -20 -56 -16 -60 -56 53 -18 49 -21 52 -53 52 -32 0
-33 -1 -18 -18z"/>
<path d="M1850 265 c0 -170 4 -265 10 -265 6 0 10 9 10 20 0 22 10 26 27 9 6
-6 87 -9 237 -7 176 2 226 0 226 -9 0 -7 5 -13 10 -13 6 0 10 95 10 265 0 170
-4 265 -10 265 -10 0 -14 -15 -11 -34 1 -5 -5 -4 -13 3 -11 9 -73 11 -240 9
-176 -2 -226 0 -226 10 0 6 -7 12 -15 12 -13 0 -15 -36 -15 -265z m490 0 l0
-220 -220 0 -220 0 0 220 0 220 220 0 220 0 0 -220z"/>
<path d="M2078 378 c-8 -7 -18 -20 -21 -29 -5 -15 -2 -15 24 -6 35 14 62 1 67
-31 2 -16 -8 -25 -52 -45 -41 -19 -57 -32 -62 -52 -12 -49 45 -82 97 -55 13 7
19 7 19 0 0 -5 12 -10 26 -10 l27 0 -5 102 c-5 90 -8 104 -28 120 -26 21 -69
24 -92 6z m72 -164 c0 -32 -2 -35 -26 -32 -55 6 -59 68 -4 68 28 0 30 -3 30
-36z"/>
<path d="M2470 265 c0 -170 4 -265 10 -265 6 0 10 10 10 21 0 17 3 19 13 10
15 -12 419 -17 449 -6 9 4 19 14 23 23 12 31 5 434 -7 449 -9 11 -57 13 -245
11 -181 -2 -233 0 -233 10 0 6 -4 12 -10 12 -6 0 -10 -95 -10 -265z m482 -1
l-1 -217 -220 -1 -221 -1 0 220 0 220 221 -2 221 -1 0 -218z"/>
<path d="M2653 423 c-19 -4 -20 -7 -11 -41 6 -20 8 -92 6 -159 l-4 -123 26 0
25 0 -4 86 c-3 92 2 104 46 104 35 0 46 -34 40 -117 l-5 -73 30 0 c23 0 29 4
24 16 -3 9 -6 53 -6 98 0 90 -9 111 -52 121 -22 6 -33 1 -54 -22 l-27 -28 5
73 c4 50 2 72 -6 71 -6 -1 -21 -4 -33 -6z"/>
</g>
</svg>
