<svg xmlns="http://www.w3.org/2000/svg" xmlns:xlink="http://www.w3.org/1999/xlink" version="1.1" x="0px" y="0px" viewBox="0 0 100 125" enable-background="new 0 0 100 100" xml:space="preserve"><path d="M66,26c-7.455,0-10.89,4.482-16,9.4c-5.116-4.923-8.54-9.4-16-9.4c-8.4,0-15,6.6-15,15c0,13.2,25.3,31.7,31,33  c5.7-1.3,31-19.8,31-33C81,32.6,74.4,26,66,26z M34,32c-5,0-9,4-9,9c0,1.342-2,1.34-2,0c0-6.1,4.9-11,11-11  C35.342,30,35.34,32,34,32z"/><text x="0" y="115" fill="#000000" font-size="5px" font-weight="bold" font-family="'Helvetica Neue', Helvetica, Arial-Unicode, Arial, Sans-serif">Created by Setyo Ari Wibowo</text><text x="0" y="120" fill="#000000" font-size="5px" font-weight="bold" font-family="'Helvetica Neue', Helvetica, Arial-Unicode, Arial, Sans-serif">from the Noun Project</text></svg>