<svg xmlns="http://www.w3.org/2000/svg" xmlns:xlink="http://www.w3.org/1999/xlink" version="1.1" x="0px" y="0px" viewBox="0 0 100 125" enable-background="new 0 0 100 100" xml:space="preserve"><path d="M83,41c0-9.5-7.5-17-17-17c-8.331,0-12.564,5.253-16,8.6c-3.48-3.392-7.675-8.6-16-8.6c-9.5,0-17,7.5-17,17  c0,14.9,27,33.9,32.8,35h0.4c1.899-0.4,6.2-2.7,11.1-6.2c2,2,4.7,3.2,7.8,3.2c9.56,0,14.466-11.301,8.2-18.3  C80.7,50.1,83,45.4,83,41z M50,74c-5.7-1.3-31-19.8-31-33c0-8.4,6.6-15,15-15c7.441,0,10.868,4.461,16,9.4  c5.116-4.923,8.539-9.4,16-9.4c8.4,0,15,6.6,15,15c0,3.8-2.1,8.1-5.3,12.3C73.8,51.9,71.5,51,69,51c-9.206,0-13.902,10.396-9.1,17.2  C55.6,71.4,51.8,73.6,50,74z M75,63h-5v5h-2v-5h-5v-2h5v-5h2v5h5V63z"/><text x="0" y="115" fill="#000000" font-size="5px" font-weight="bold" font-family="'Helvetica Neue', Helvetica, Arial-Unicode, Arial, Sans-serif">Created by Setyo Ari Wibowo</text><text x="0" y="120" fill="#000000" font-size="5px" font-weight="bold" font-family="'Helvetica Neue', Helvetica, Arial-Unicode, Arial, Sans-serif">from the Noun Project</text></svg>